<svg width="80" height="88" viewBox="0 0 80 88" fill="none" xmlns="http://www.w3.org/2000/svg">
<g filter="url(#filter0_b_54_295)">
<path d="M0 47.8954C0 25.8618 17.9664 8 40 8C62.0336 8 80 25.8618 80 47.8954C80 69.929 62.0336 87.7908 40 87.7908C17.9664 87.7908 0 69.929 0 47.8954Z" fill="url(#paint0_radial_54_295)"/>
<path d="M0.5 47.8954C0.5 26.1396 18.2408 8.5 40 8.5C61.7592 8.5 79.5 26.1396 79.5 47.8954C79.5 69.6512 61.7592 87.2908 40 87.2908C18.2408 87.2908 0.5 69.6512 0.5 47.8954Z" stroke="url(#paint1_radial_54_295)"/>
<path d="M0.5 47.8954C0.5 26.1396 18.2408 8.5 40 8.5C61.7592 8.5 79.5 26.1396 79.5 47.8954C79.5 69.6512 61.7592 87.2908 40 87.2908C18.2408 87.2908 0.5 69.6512 0.5 47.8954Z" stroke="url(#paint2_radial_54_295)"/>
<path d="M0.5 47.8954C0.5 26.1396 18.2408 8.5 40 8.5C61.7592 8.5 79.5 26.1396 79.5 47.8954C79.5 69.6512 61.7592 87.2908 40 87.2908C18.2408 87.2908 0.5 69.6512 0.5 47.8954Z" stroke="url(#paint3_radial_54_295)"/>
</g>
<path d="M39.9996 46.8981C38.1846 45.5552 35.4612 43.2051 27.6555 43.2051V60.0207C35.4612 60.0207 38.1846 62.3708 39.9996 63.7138V46.8981Z" stroke="url(#paint4_linear_54_295)" stroke-width="2" stroke-linecap="round" stroke-linejoin="round"/>
<path d="M40.0007 46.8981C41.8158 45.5552 44.5391 43.2051 52.3447 43.2051V60.0207C44.5391 60.0207 41.8158 62.3708 40.0007 63.7138V46.8981Z" stroke="url(#paint5_linear_54_295)" stroke-width="2" stroke-linecap="round" stroke-linejoin="round"/>
<path d="M49.1389 32.2659H32.9235C32.4705 32.2659 32.0265 32.3926 31.6417 32.6317L27.3733 35.2841L31.6417 37.9365C32.0265 38.1756 32.4705 38.3023 32.9235 38.3023H49.1389C50.8059 38.3023 52.1572 36.951 52.1572 35.2841C52.1572 33.6172 50.8059 32.2659 49.1389 32.2659Z" stroke="url(#paint6_linear_54_295)" stroke-width="2" stroke-linecap="round" stroke-linejoin="round"/>
<path d="M44.8228 32.3957V38.3024" stroke="url(#paint7_linear_54_295)" stroke-width="2" stroke-linecap="round" stroke-linejoin="round"/>
<g filter="url(#filter1_f_54_295)">
<ellipse cx="39.7435" cy="29.4822" rx="25.3846" ry="16.3673" fill="url(#paint8_radial_54_295)" fill-opacity="0.2"/>
</g>
<defs>
<filter id="filter0_b_54_295" x="-5" y="3" width="90" height="89.7908" filterUnits="userSpaceOnUse" color-interpolation-filters="sRGB">
<feFlood flood-opacity="0" result="BackgroundImageFix"/>
<feGaussianBlur in="BackgroundImageFix" stdDeviation="2.5"/>
<feComposite in2="SourceAlpha" operator="in" result="effect1_backgroundBlur_54_295"/>
<feBlend mode="normal" in="SourceGraphic" in2="effect1_backgroundBlur_54_295" result="shape"/>
</filter>
<filter id="filter1_f_54_295" x="1.40435" y="0.160334" width="76.6784" height="58.6437" filterUnits="userSpaceOnUse" color-interpolation-filters="sRGB">
<feFlood flood-opacity="0" result="BackgroundImageFix"/>
<feBlend mode="normal" in="SourceGraphic" in2="BackgroundImageFix" result="shape"/>
<feGaussianBlur stdDeviation="6.47727" result="effect1_foregroundBlur_54_295"/>
</filter>
<radialGradient id="paint0_radial_54_295" cx="0" cy="0" r="1" gradientUnits="userSpaceOnUse" gradientTransform="translate(6.69204 8) rotate(47.9449) scale(119.431 86.7751)">
<stop stop-color="white" stop-opacity="0.36"/>
<stop offset="1" stop-color="white" stop-opacity="0"/>
</radialGradient>
<radialGradient id="paint1_radial_54_295" cx="0" cy="0" r="1" gradientUnits="userSpaceOnUse" gradientTransform="translate(-42.5965 16.1628) rotate(35.0407) scale(92.1512 54.3882)">
<stop stop-color="white"/>
<stop offset="1" stop-color="white" stop-opacity="0.06"/>
</radialGradient>
<radialGradient id="paint2_radial_54_295" cx="0" cy="0" r="1" gradientUnits="userSpaceOnUse" gradientTransform="translate(103.421 61.4008) rotate(161.385) scale(66.8428 45.1784)">
<stop stop-color="#6DEC2D"/>
<stop offset="1" stop-color="#84DA00" stop-opacity="0.25"/>
</radialGradient>
<radialGradient id="paint3_radial_54_295" cx="0" cy="0" r="1" gradientUnits="userSpaceOnUse" gradientTransform="translate(40.871 -10.2359) rotate(47.2149) scale(44.643 32.0879)">
<stop stop-color="white"/>
<stop offset="1" stop-color="white" stop-opacity="0"/>
</radialGradient>
<linearGradient id="paint4_linear_54_295" x1="33.8276" y1="43.2051" x2="33.8276" y2="63.7138" gradientUnits="userSpaceOnUse">
<stop stop-color="#3AAF00"/>
<stop offset="1" stop-color="#6DEC2D"/>
</linearGradient>
<linearGradient id="paint5_linear_54_295" x1="46.1727" y1="43.2051" x2="46.1727" y2="63.7138" gradientUnits="userSpaceOnUse">
<stop stop-color="#3AAF00"/>
<stop offset="1" stop-color="#6DEC2D"/>
</linearGradient>
<linearGradient id="paint6_linear_54_295" x1="39.7652" y1="32.2659" x2="39.7652" y2="38.3023" gradientUnits="userSpaceOnUse">
<stop stop-color="#3AAF00"/>
<stop offset="1" stop-color="#6DEC2D"/>
</linearGradient>
<linearGradient id="paint7_linear_54_295" x1="45.3228" y1="32.3957" x2="45.3228" y2="38.3024" gradientUnits="userSpaceOnUse">
<stop stop-color="#3AAF00"/>
<stop offset="1" stop-color="#6DEC2D"/>
</linearGradient>
<radialGradient id="paint8_radial_54_295" cx="0" cy="0" r="1" gradientUnits="userSpaceOnUse" gradientTransform="translate(39.7435 13.1149) rotate(90) scale(24.2566 37.625)">
<stop stop-color="white"/>
<stop offset="1" stop-color="white" stop-opacity="0"/>
</radialGradient>
</defs>
</svg>
