<svg width="80" height="80" viewBox="0 0 80 80" fill="none" xmlns="http://www.w3.org/2000/svg">
<g filter="url(#filter0_b_54_255)">
<path d="M0 39.8954C0 17.8618 17.9664 0 40 0C62.0336 0 80 17.8618 80 39.8954C80 61.929 62.0336 79.7908 40 79.7908C17.9664 79.7908 0 61.929 0 39.8954Z" fill="url(#paint0_radial_54_255)"/>
<path d="M0.5 39.8954C0.5 18.1396 18.2408 0.5 40 0.5C61.7592 0.5 79.5 18.1396 79.5 39.8954C79.5 61.6512 61.7592 79.2908 40 79.2908C18.2408 79.2908 0.5 61.6512 0.5 39.8954Z" stroke="url(#paint1_radial_54_255)" stroke-opacity="0.6"/>
<path d="M0.5 39.8954C0.5 18.1396 18.2408 0.5 40 0.5C61.7592 0.5 79.5 18.1396 79.5 39.8954C79.5 61.6512 61.7592 79.2908 40 79.2908C18.2408 79.2908 0.5 61.6512 0.5 39.8954Z" stroke="url(#paint2_radial_54_255)"/>
<path d="M0.5 39.8954C0.5 18.1396 18.2408 0.5 40 0.5C61.7592 0.5 79.5 18.1396 79.5 39.8954C79.5 61.6512 61.7592 79.2908 40 79.2908C18.2408 79.2908 0.5 61.6512 0.5 39.8954Z" stroke="url(#paint3_radial_54_255)" stroke-opacity="0.6"/>
</g>
<path d="M34.981 42.8738H44.6952" stroke="url(#paint4_linear_54_255)" stroke-width="2" stroke-linecap="round" stroke-linejoin="round"/>
<path d="M39.8381 38.0167V47.731" stroke="url(#paint5_linear_54_255)" stroke-width="2" stroke-linecap="round" stroke-linejoin="round"/>
<path d="M45.9095 31.3381V27.6953C45.9095 27.0512 45.6536 26.4335 45.1982 25.978C44.7427 25.5226 44.125 25.2667 43.4809 25.2667H36.1952C35.5511 25.2667 34.9334 25.5226 34.4779 25.978C34.0225 26.4335 33.7666 27.0512 33.7666 27.6953V31.3381" stroke="url(#paint6_linear_54_255)" stroke-width="2" stroke-linecap="round" stroke-linejoin="round"/>
<path d="M51.9809 31.3381H27.6952C26.3539 31.3381 25.2666 32.4255 25.2666 33.7667V51.981C25.2666 53.3223 26.3539 54.4096 27.6952 54.4096H51.9809C53.3222 54.4096 54.4095 53.3223 54.4095 51.981V33.7667C54.4095 32.4255 53.3222 31.3381 51.9809 31.3381Z" stroke="url(#paint7_linear_54_255)" stroke-width="2" stroke-linecap="round" stroke-linejoin="round"/>
<defs>
<filter id="filter0_b_54_255" x="-5" y="-5" width="90" height="89.7908" filterUnits="userSpaceOnUse" color-interpolation-filters="sRGB">
<feFlood flood-opacity="0" result="BackgroundImageFix"/>
<feGaussianBlur in="BackgroundImageFix" stdDeviation="2.5"/>
<feComposite in2="SourceAlpha" operator="in" result="effect1_backgroundBlur_54_255"/>
<feBlend mode="normal" in="SourceGraphic" in2="effect1_backgroundBlur_54_255" result="shape"/>
</filter>
<radialGradient id="paint0_radial_54_255" cx="0" cy="0" r="1" gradientUnits="userSpaceOnUse" gradientTransform="translate(6.69204) rotate(47.9449) scale(119.431 86.7751)">
<stop stop-color="white" stop-opacity="0.36"/>
<stop offset="1" stop-color="white" stop-opacity="0"/>
</radialGradient>
<radialGradient id="paint1_radial_54_255" cx="0" cy="0" r="1" gradientUnits="userSpaceOnUse" gradientTransform="translate(-42.5965 8.1628) rotate(35.0407) scale(92.1512 54.3882)">
<stop stop-color="white"/>
<stop offset="1" stop-color="white" stop-opacity="0.06"/>
</radialGradient>
<radialGradient id="paint2_radial_54_255" cx="0" cy="0" r="1" gradientUnits="userSpaceOnUse" gradientTransform="translate(103.421 53.4008) rotate(161.385) scale(66.8428 45.1784)">
<stop stop-color="#6DEC2D"/>
<stop offset="1" stop-color="#84DA00" stop-opacity="0.35"/>
</radialGradient>
<radialGradient id="paint3_radial_54_255" cx="0" cy="0" r="1" gradientUnits="userSpaceOnUse" gradientTransform="translate(40.871 -18.2359) rotate(47.2149) scale(44.643 32.0879)">
<stop stop-color="white"/>
<stop offset="1" stop-color="white" stop-opacity="0"/>
</radialGradient>
<linearGradient id="paint4_linear_54_255" x1="39.8381" y1="42.8738" x2="39.8381" y2="43.8738" gradientUnits="userSpaceOnUse">
<stop stop-color="#6DEC2D"/>
<stop offset="1" stop-color="#3AAF00"/>
</linearGradient>
<linearGradient id="paint5_linear_54_255" x1="40.3381" y1="38.0167" x2="40.3381" y2="47.731" gradientUnits="userSpaceOnUse">
<stop stop-color="#6DEC2D"/>
<stop offset="1" stop-color="#3AAF00"/>
</linearGradient>
<linearGradient id="paint6_linear_54_255" x1="39.838" y1="25.2667" x2="39.838" y2="31.3381" gradientUnits="userSpaceOnUse">
<stop stop-color="#6DEC2D"/>
<stop offset="1" stop-color="#3AAF00"/>
</linearGradient>
<linearGradient id="paint7_linear_54_255" x1="39.838" y1="31.3381" x2="39.838" y2="54.4096" gradientUnits="userSpaceOnUse">
<stop stop-color="#6DEC2D"/>
<stop offset="1" stop-color="#3AAF00"/>
</linearGradient>
</defs>
</svg>
