<svg width="80" height="88" viewBox="0 0 80 88" fill="none" xmlns="http://www.w3.org/2000/svg">
<g filter="url(#filter0_b_54_355)">
<path d="M0 47.8954C0 25.8618 17.9664 8 40 8C62.0336 8 80 25.8618 80 47.8954C80 69.929 62.0336 87.7908 40 87.7908C17.9664 87.7908 0 69.929 0 47.8954Z" fill="url(#paint0_radial_54_355)"/>
<path d="M0.5 47.8954C0.5 26.1396 18.2408 8.5 40 8.5C61.7592 8.5 79.5 26.1396 79.5 47.8954C79.5 69.6512 61.7592 87.2908 40 87.2908C18.2408 87.2908 0.5 69.6512 0.5 47.8954Z" stroke="url(#paint1_radial_54_355)"/>
<path d="M0.5 47.8954C0.5 26.1396 18.2408 8.5 40 8.5C61.7592 8.5 79.5 26.1396 79.5 47.8954C79.5 69.6512 61.7592 87.2908 40 87.2908C18.2408 87.2908 0.5 69.6512 0.5 47.8954Z" stroke="url(#paint2_radial_54_355)"/>
<path d="M0.5 47.8954C0.5 26.1396 18.2408 8.5 40 8.5C61.7592 8.5 79.5 26.1396 79.5 47.8954C79.5 69.6512 61.7592 87.2908 40 87.2908C18.2408 87.2908 0.5 69.6512 0.5 47.8954Z" stroke="url(#paint3_radial_54_355)"/>
</g>
<path d="M38.3266 55.8094C38.3266 56.4255 37.8272 56.925 37.211 56.925H33.3063C32.4475 56.925 31.9107 55.9953 32.3401 55.2516C32.5394 54.9064 32.9077 54.6938 33.3063 54.6938H37.211C37.8271 54.6938 38.3266 55.1932 38.3266 55.8094ZM46.6938 54.6938H42.7891C41.9303 54.6938 41.3936 55.6235 41.823 56.3672C42.0222 56.7124 42.3906 56.925 42.7891 56.925H46.6938C47.5526 56.925 48.0894 55.9953 47.66 55.2516C47.4607 54.9064 47.0924 54.6938 46.6938 54.6938ZM55.6188 61.3875C55.6188 62.0037 55.1193 62.5031 54.5032 62.5031H25.4969C24.6381 62.5031 24.1014 61.5734 24.5308 60.8297C24.7301 60.4845 25.0984 60.2719 25.4969 60.2719H26.6126V43.5375C26.6126 42.6787 27.5422 42.1419 28.286 42.5714C28.3246 42.5937 28.3619 42.6183 28.3976 42.645L35.5376 48V43.5375C35.5376 42.6787 36.4672 42.1419 37.211 42.5714C37.2496 42.5937 37.2869 42.6183 37.3226 42.645L42.725 46.6961L44.337 35.413C44.4984 34.316 45.4372 33.5016 46.546 33.4969H49.0729C50.1816 33.5016 51.1205 34.316 51.2818 35.413L53.3736 50.0737C53.3736 50.0737 53.3848 50.1825 53.3848 50.2313V60.2719H54.5004C55.1176 60.2703 55.6188 60.7703 55.6188 61.3875ZM44.761 48.2231L45.9505 49.1156H50.9862L49.0729 35.7281H46.546L44.761 48.2231ZM28.8438 60.2719H51.1563V51.3469H45.5782C45.3368 51.3469 45.1019 51.2686 44.9088 51.1238L42.9007 49.6177L37.7688 45.7688V50.2313C37.7688 51.0901 36.8391 51.6268 36.0954 51.1974C36.0567 51.1751 36.0195 51.1505 35.9838 51.1238L28.8438 45.7688V60.2719Z" fill="url(#paint4_linear_54_355)"/>
<g filter="url(#filter1_f_54_355)">
<ellipse cx="39.7435" cy="29.4822" rx="25.3846" ry="16.3673" fill="url(#paint5_radial_54_355)" fill-opacity="0.2"/>
</g>
<defs>
<filter id="filter0_b_54_355" x="-5" y="3" width="90" height="89.7908" filterUnits="userSpaceOnUse" color-interpolation-filters="sRGB">
<feFlood flood-opacity="0" result="BackgroundImageFix"/>
<feGaussianBlur in="BackgroundImageFix" stdDeviation="2.5"/>
<feComposite in2="SourceAlpha" operator="in" result="effect1_backgroundBlur_54_355"/>
<feBlend mode="normal" in="SourceGraphic" in2="effect1_backgroundBlur_54_355" result="shape"/>
</filter>
<filter id="filter1_f_54_355" x="1.40435" y="0.160334" width="76.6784" height="58.6437" filterUnits="userSpaceOnUse" color-interpolation-filters="sRGB">
<feFlood flood-opacity="0" result="BackgroundImageFix"/>
<feBlend mode="normal" in="SourceGraphic" in2="BackgroundImageFix" result="shape"/>
<feGaussianBlur stdDeviation="6.47727" result="effect1_foregroundBlur_54_355"/>
</filter>
<radialGradient id="paint0_radial_54_355" cx="0" cy="0" r="1" gradientUnits="userSpaceOnUse" gradientTransform="translate(6.69204 8) rotate(47.9449) scale(119.431 86.7751)">
<stop stop-color="white" stop-opacity="0.36"/>
<stop offset="1" stop-color="white" stop-opacity="0"/>
</radialGradient>
<radialGradient id="paint1_radial_54_355" cx="0" cy="0" r="1" gradientUnits="userSpaceOnUse" gradientTransform="translate(-42.5965 16.1628) rotate(35.0407) scale(92.1512 54.3882)">
<stop stop-color="white"/>
<stop offset="1" stop-color="white" stop-opacity="0.06"/>
</radialGradient>
<radialGradient id="paint2_radial_54_355" cx="0" cy="0" r="1" gradientUnits="userSpaceOnUse" gradientTransform="translate(103.421 61.4008) rotate(161.385) scale(66.8428 45.1784)">
<stop stop-color="#6DEC2D"/>
<stop offset="1" stop-color="#84DA00" stop-opacity="0.25"/>
</radialGradient>
<radialGradient id="paint3_radial_54_355" cx="0" cy="0" r="1" gradientUnits="userSpaceOnUse" gradientTransform="translate(40.871 -10.2359) rotate(47.2149) scale(44.643 32.0879)">
<stop stop-color="white"/>
<stop offset="1" stop-color="white" stop-opacity="0"/>
</radialGradient>
<linearGradient id="paint4_linear_54_355" x1="39.9992" y1="33.4969" x2="39.9992" y2="62.5031" gradientUnits="userSpaceOnUse">
<stop stop-color="#3AAF00"/>
<stop offset="1" stop-color="#6DEC2D"/>
</linearGradient>
<radialGradient id="paint5_radial_54_355" cx="0" cy="0" r="1" gradientUnits="userSpaceOnUse" gradientTransform="translate(39.7435 13.1149) rotate(90) scale(24.2566 37.625)">
<stop stop-color="white"/>
<stop offset="1" stop-color="white" stop-opacity="0"/>
</radialGradient>
</defs>
</svg>
