<svg width="80" height="80" viewBox="0 0 80 80" fill="none" xmlns="http://www.w3.org/2000/svg">
<g filter="url(#filter0_b_54_315)">
<path d="M0 39.8954C0 17.8618 17.9664 0 40 0C62.0336 0 80 17.8618 80 39.8954C80 61.929 62.0336 79.7908 40 79.7908C17.9664 79.7908 0 61.929 0 39.8954Z" fill="url(#paint0_radial_54_315)"/>
<path d="M0.5 39.8954C0.5 18.1396 18.2408 0.5 40 0.5C61.7592 0.5 79.5 18.1396 79.5 39.8954C79.5 61.6512 61.7592 79.2908 40 79.2908C18.2408 79.2908 0.5 61.6512 0.5 39.8954Z" stroke="url(#paint1_radial_54_315)"/>
<path d="M0.5 39.8954C0.5 18.1396 18.2408 0.5 40 0.5C61.7592 0.5 79.5 18.1396 79.5 39.8954C79.5 61.6512 61.7592 79.2908 40 79.2908C18.2408 79.2908 0.5 61.6512 0.5 39.8954Z" stroke="url(#paint2_radial_54_315)"/>
<path d="M0.5 39.8954C0.5 18.1396 18.2408 0.5 40 0.5C61.7592 0.5 79.5 18.1396 79.5 39.8954C79.5 61.6512 61.7592 79.2908 40 79.2908C18.2408 79.2908 0.5 61.6512 0.5 39.8954Z" stroke="url(#paint3_radial_54_315)"/>
</g>
<path d="M50.1602 53.9453H29.8398V33.625H37.4633L40 38.6984H50.1602V53.9453Z" stroke="url(#paint4_linear_54_315)" stroke-width="2" stroke-miterlimit="10"/>
<path d="M24.7532 53.9453H55.2469" stroke="url(#paint5_linear_54_315)" stroke-width="2" stroke-miterlimit="10"/>
<path d="M33.6516 43.7852H36.1883" stroke="url(#paint6_linear_54_315)" stroke-width="2" stroke-miterlimit="10"/>
<path d="M33.6516 38.6984H36.1883" stroke="url(#paint7_linear_54_315)" stroke-width="2" stroke-miterlimit="10"/>
<path d="M33.6516 48.8586H36.1883" stroke="url(#paint8_linear_54_315)" stroke-width="2" stroke-miterlimit="10"/>
<path d="M38.7251 48.8586H41.2751" stroke="url(#paint9_linear_54_315)" stroke-width="2" stroke-miterlimit="10"/>
<path d="M43.8118 48.8586H46.3485" stroke="url(#paint10_linear_54_315)" stroke-width="2" stroke-miterlimit="10"/>
<path d="M38.7251 43.7852H41.2751" stroke="url(#paint11_linear_54_315)" stroke-width="2" stroke-miterlimit="10"/>
<path d="M43.8118 43.7852H46.3485" stroke="url(#paint12_linear_54_315)" stroke-width="2" stroke-miterlimit="10"/>
<path d="M32.3765 24.7266V33.625" stroke="url(#paint13_linear_54_315)" stroke-width="2" stroke-miterlimit="10"/>
<path d="M47.6235 27.2633V37.4367" stroke="url(#paint14_linear_54_315)" stroke-width="2" stroke-miterlimit="10"/>
<path d="M40 24.7266V37.4367" stroke="url(#paint15_linear_54_315)" stroke-width="2" stroke-miterlimit="10"/>
<path d="M29.8398 28.5383H40" stroke="url(#paint16_linear_54_315)" stroke-width="2" stroke-miterlimit="10"/>
<path d="M40 32.35H50.1602" stroke="url(#paint17_linear_54_315)" stroke-width="2" stroke-miterlimit="10"/>
<defs>
<filter id="filter0_b_54_315" x="-5" y="-5" width="90" height="89.7908" filterUnits="userSpaceOnUse" color-interpolation-filters="sRGB">
<feFlood flood-opacity="0" result="BackgroundImageFix"/>
<feGaussianBlur in="BackgroundImageFix" stdDeviation="2.5"/>
<feComposite in2="SourceAlpha" operator="in" result="effect1_backgroundBlur_54_315"/>
<feBlend mode="normal" in="SourceGraphic" in2="effect1_backgroundBlur_54_315" result="shape"/>
</filter>
<radialGradient id="paint0_radial_54_315" cx="0" cy="0" r="1" gradientUnits="userSpaceOnUse" gradientTransform="translate(6.69204) rotate(47.9449) scale(119.431 86.7751)">
<stop stop-color="white" stop-opacity="0.36"/>
<stop offset="1" stop-color="white" stop-opacity="0"/>
</radialGradient>
<radialGradient id="paint1_radial_54_315" cx="0" cy="0" r="1" gradientUnits="userSpaceOnUse" gradientTransform="translate(-42.5965 8.1628) rotate(35.0407) scale(92.1512 54.3882)">
<stop stop-color="white"/>
<stop offset="1" stop-color="white" stop-opacity="0.06"/>
</radialGradient>
<radialGradient id="paint2_radial_54_315" cx="0" cy="0" r="1" gradientUnits="userSpaceOnUse" gradientTransform="translate(103.421 53.4008) rotate(161.385) scale(66.8428 45.1784)">
<stop stop-color="#6DEC2D"/>
<stop offset="1" stop-color="#84DA00" stop-opacity="0.25"/>
</radialGradient>
<radialGradient id="paint3_radial_54_315" cx="0" cy="0" r="1" gradientUnits="userSpaceOnUse" gradientTransform="translate(40.871 -18.2359) rotate(47.2149) scale(44.643 32.0879)">
<stop stop-color="white"/>
<stop offset="1" stop-color="white" stop-opacity="0"/>
</radialGradient>
<linearGradient id="paint4_linear_54_315" x1="40" y1="33.625" x2="40" y2="53.9453" gradientUnits="userSpaceOnUse">
<stop stop-color="#6DEC2D"/>
<stop offset="1" stop-color="#3AAF00"/>
</linearGradient>
<linearGradient id="paint5_linear_54_315" x1="40" y1="53.9453" x2="40" y2="54.9453" gradientUnits="userSpaceOnUse">
<stop stop-color="#6DEC2D"/>
<stop offset="1" stop-color="#3AAF00"/>
</linearGradient>
<linearGradient id="paint6_linear_54_315" x1="34.92" y1="43.7852" x2="34.92" y2="44.7852" gradientUnits="userSpaceOnUse">
<stop stop-color="#6DEC2D"/>
<stop offset="1" stop-color="#3AAF00"/>
</linearGradient>
<linearGradient id="paint7_linear_54_315" x1="34.92" y1="38.6984" x2="34.92" y2="39.6984" gradientUnits="userSpaceOnUse">
<stop stop-color="#6DEC2D"/>
<stop offset="1" stop-color="#3AAF00"/>
</linearGradient>
<linearGradient id="paint8_linear_54_315" x1="34.92" y1="48.8586" x2="34.92" y2="49.8586" gradientUnits="userSpaceOnUse">
<stop stop-color="#6DEC2D"/>
<stop offset="1" stop-color="#3AAF00"/>
</linearGradient>
<linearGradient id="paint9_linear_54_315" x1="40.0001" y1="48.8586" x2="40.0001" y2="49.8586" gradientUnits="userSpaceOnUse">
<stop stop-color="#6DEC2D"/>
<stop offset="1" stop-color="#3AAF00"/>
</linearGradient>
<linearGradient id="paint10_linear_54_315" x1="45.0801" y1="48.8586" x2="45.0801" y2="49.8586" gradientUnits="userSpaceOnUse">
<stop stop-color="#6DEC2D"/>
<stop offset="1" stop-color="#3AAF00"/>
</linearGradient>
<linearGradient id="paint11_linear_54_315" x1="40.0001" y1="43.7852" x2="40.0001" y2="44.7852" gradientUnits="userSpaceOnUse">
<stop stop-color="#6DEC2D"/>
<stop offset="1" stop-color="#3AAF00"/>
</linearGradient>
<linearGradient id="paint12_linear_54_315" x1="45.0801" y1="43.7852" x2="45.0801" y2="44.7852" gradientUnits="userSpaceOnUse">
<stop stop-color="#6DEC2D"/>
<stop offset="1" stop-color="#3AAF00"/>
</linearGradient>
<linearGradient id="paint13_linear_54_315" x1="32.8765" y1="24.7266" x2="32.8765" y2="33.625" gradientUnits="userSpaceOnUse">
<stop stop-color="#6DEC2D"/>
<stop offset="1" stop-color="#3AAF00"/>
</linearGradient>
<linearGradient id="paint14_linear_54_315" x1="48.1235" y1="27.2633" x2="48.1235" y2="37.4367" gradientUnits="userSpaceOnUse">
<stop stop-color="#6DEC2D"/>
<stop offset="1" stop-color="#3AAF00"/>
</linearGradient>
<linearGradient id="paint15_linear_54_315" x1="40.5" y1="24.7266" x2="40.5" y2="37.4367" gradientUnits="userSpaceOnUse">
<stop stop-color="#6DEC2D"/>
<stop offset="1" stop-color="#3AAF00"/>
</linearGradient>
<linearGradient id="paint16_linear_54_315" x1="34.9199" y1="28.5383" x2="34.9199" y2="29.5383" gradientUnits="userSpaceOnUse">
<stop stop-color="#6DEC2D"/>
<stop offset="1" stop-color="#3AAF00"/>
</linearGradient>
<linearGradient id="paint17_linear_54_315" x1="45.0801" y1="32.35" x2="45.0801" y2="33.35" gradientUnits="userSpaceOnUse">
<stop stop-color="#6DEC2D"/>
<stop offset="1" stop-color="#3AAF00"/>
</linearGradient>
</defs>
</svg>
