<svg width="436" height="55" viewBox="0 0 436 55" fill="none" xmlns="http://www.w3.org/2000/svg">
<path d="M20.2059 41.9177C16.0583 41.9177 12.4612 41.1364 9.41473 39.5738C6.36825 38.0112 4.03751 35.7582 2.4225 32.8147C0.807501 29.8712 0 26.3826 0 22.3489C0 18.3152 0.807501 14.8266 2.4225 11.8831C4.03751 8.90321 6.3499 6.63198 9.35968 5.06938C12.4062 3.47043 15.9849 2.67096 20.0958 2.67096C23.5093 2.67096 26.6659 3.2524 29.5656 4.41526C32.4652 5.57813 34.6124 7.12256 36.0072 9.04856C36.4477 9.63 36.6679 10.2296 36.6679 10.8474C36.6679 11.7559 36.1724 12.5735 35.1814 13.3003C34.7409 13.6274 34.1903 13.7909 33.5297 13.7909C32.9791 13.7909 32.4285 13.6819 31.878 13.4638C31.3274 13.2094 30.8686 12.8642 30.5015 12.4281C29.2536 11.0109 27.8037 9.99339 26.152 9.37562C24.5003 8.72151 22.4816 8.39445 20.0958 8.39445C16.095 8.39445 12.9751 9.63 10.7361 12.1011C8.49712 14.5358 7.37763 17.9518 7.37763 22.3489C7.37763 26.7096 8.49712 30.1074 10.7361 32.5421C13.0118 34.9769 16.1684 36.1943 20.2059 36.1943C23.546 36.1943 26.152 35.5583 28.024 34.2864C29.9326 33.0145 30.8869 31.2521 30.8869 28.999V27.7998C30.8869 27.0367 30.7034 26.5097 30.3364 26.219C30.006 25.9283 29.4187 25.783 28.5745 25.783H21.3621C20.3344 25.783 19.5269 25.5467 18.9396 25.0743C18.3523 24.5656 18.0587 23.8751 18.0587 23.003C18.0587 22.0945 18.334 21.404 18.8845 20.9316C19.4718 20.4229 20.2976 20.1685 21.3621 20.1685H32.0431C34.172 20.1685 35.7319 20.6227 36.723 21.5312C37.714 22.4034 38.2095 23.8024 38.2095 25.7284V27.8543C38.2095 30.6161 37.4571 33.069 35.9522 35.2131C34.4473 37.3208 32.3184 38.9742 29.5656 40.1734C26.8494 41.3363 23.7295 41.9177 20.2059 41.9177Z" fill="url(#paint0_linear_2_172)"/>
<path d="M57.5061 41.9177C54.3495 41.9177 51.5966 41.3545 49.2475 40.2279C46.8985 39.1014 45.0816 37.5206 43.7969 35.4856C42.549 33.4143 41.925 30.9977 41.925 28.2359C41.925 23.7661 43.228 20.2957 45.834 17.8246C48.4767 15.3535 52.1839 14.1179 56.9555 14.1179C59.8919 14.1179 62.4796 14.5722 64.7185 15.4807C66.9942 16.3892 68.756 17.6611 70.004 19.2963C71.2887 20.8953 71.931 22.7304 71.931 24.8018C71.931 26.5461 71.3621 27.8907 70.2242 28.8355C69.1231 29.7803 67.5448 30.2527 65.4893 30.2527H48.9172C48.9172 32.2877 49.6329 33.8322 51.0644 34.886C52.5326 35.9035 54.6798 36.4123 57.5061 36.4123C60.4792 36.4123 63.0118 35.7582 65.1039 34.45C66.2785 33.7232 67.1961 33.3598 67.8568 33.3598C68.4808 33.3598 69.0864 33.6505 69.6737 34.2319C70.2976 34.8497 70.6096 35.522 70.6096 36.2488C70.6096 37.1209 70.2426 37.8114 69.5085 38.3201C67.9669 39.483 66.1684 40.3733 64.1129 40.9911C62.0575 41.6089 59.8552 41.9177 57.5061 41.9177ZM63.2871 25.2379C63.911 25.2379 64.3515 25.1288 64.6084 24.9108C64.8654 24.6564 64.9938 24.2567 64.9938 23.7116C64.9938 22.4397 64.2597 21.4404 62.7915 20.7136C61.3601 19.9868 59.4147 19.6234 56.9555 19.6234C54.4963 19.6234 52.551 20.1321 51.1195 21.1497C49.7247 22.1672 49.0273 23.5299 49.0273 25.2379H63.2871Z" fill="url(#paint1_linear_2_172)"/>
<path d="M80.0347 41.9177C78.8968 41.9177 78.0159 41.627 77.3919 41.0456C76.768 40.4642 76.456 39.6647 76.456 38.6472V17.3885C76.456 16.3347 76.7496 15.5352 77.3369 14.9901C77.9609 14.4087 78.8234 14.1179 79.9246 14.1179C81.0257 14.1179 81.8883 14.4087 82.5122 14.9901C83.1362 15.5715 83.4482 16.371 83.4482 17.3885V18.9693C86.0542 15.7351 89.6146 14.1179 94.1293 14.1179C97.6529 14.1179 100.424 15.2263 102.443 17.443C104.498 19.6234 105.526 22.6032 105.526 26.3826V38.6472C105.526 39.6647 105.196 40.4642 104.535 41.0456C103.874 41.627 102.993 41.9177 101.892 41.9177C100.754 41.9177 99.8735 41.627 99.2495 41.0456C98.6256 40.4642 98.3136 39.6647 98.3136 38.6472V26.3826C98.3136 24.3112 97.7997 22.6941 96.772 21.5312C95.7443 20.3684 94.3128 19.7869 92.4775 19.7869C89.688 19.7869 87.5224 20.6046 85.9808 22.2398C84.4392 23.8388 83.6684 26.0918 83.6684 28.999V38.6472C83.6684 39.6647 83.3381 40.4642 82.6774 41.0456C82.0167 41.627 81.1358 41.9177 80.0347 41.9177Z" fill="url(#paint2_linear_2_172)"/>
<path d="M119.689 41.3726C116.899 41.3726 114.733 40.6459 113.192 39.1923C111.65 37.7387 110.879 35.7037 110.879 33.0872V11.2834C110.879 8.73968 111.614 6.75917 113.082 5.34192C114.587 3.92468 116.66 3.21606 119.303 3.21606H132.021C136.279 3.21606 139.564 4.10638 141.876 5.88702C144.189 7.66766 145.345 10.2478 145.345 13.6274C145.345 15.299 144.85 16.8616 143.859 18.3152C142.868 19.7324 141.583 20.8044 140.005 21.5312V21.5857C141.766 22.2762 143.198 23.3845 144.299 24.9108C145.437 26.4007 146.006 28.0178 146.006 29.7621C146.006 33.3961 144.813 36.2488 142.427 38.3201C140.078 40.3551 136.83 41.3726 132.682 41.3726H119.689ZM132.021 18.9693C133.893 18.9693 135.343 18.515 136.371 17.6065C137.435 16.6981 137.967 15.3898 137.967 13.6819C137.967 12.0102 137.472 10.7747 136.481 9.97522C135.49 9.17575 134.003 8.77602 132.021 8.77602H120.459C119.725 8.77602 119.138 9.01222 118.698 9.48464C118.294 9.95705 118.092 10.6112 118.092 11.447V18.9693H132.021ZM132.021 35.8127C136.426 35.8127 138.628 33.8322 138.628 29.8712C138.628 28.1632 138.041 26.8368 136.866 25.892C135.728 24.9471 134.113 24.4747 132.021 24.4747H118.092V33.1417C118.092 33.9775 118.294 34.6316 118.698 35.1041C119.138 35.5765 119.725 35.8127 120.459 35.8127H132.021Z" fill="url(#paint3_linear_2_172)"/>
<path d="M154.663 41.9177C153.525 41.9177 152.644 41.627 152.02 41.0456C151.396 40.4642 151.084 39.6647 151.084 38.6472V17.3885C151.084 16.3347 151.378 15.5352 151.965 14.9901C152.589 14.4087 153.451 14.1179 154.552 14.1179C155.654 14.1179 156.516 14.4087 157.14 14.9901C157.764 15.5715 158.076 16.371 158.076 17.3885V19.1873C159.214 17.7337 160.535 16.6254 162.04 15.8622C163.582 15.0628 165.234 14.663 166.995 14.663H168.207C169.381 14.663 170.28 14.9174 170.904 15.4262C171.565 15.8986 171.895 16.589 171.895 17.4975C171.895 18.406 171.565 19.1146 170.904 19.6234C170.28 20.0958 169.381 20.332 168.207 20.332H166.335C163.875 20.332 161.912 21.1133 160.444 22.6759C159.012 24.2022 158.296 26.3099 158.296 28.999V38.6472C158.296 39.6647 157.966 40.4642 157.305 41.0456C156.645 41.627 155.764 41.9177 154.663 41.9177Z" fill="url(#paint4_linear_2_172)"/>
<path d="M178.449 10.7384C177.091 10.7384 175.99 10.375 175.146 9.64817C174.338 8.88504 173.935 7.90387 173.935 6.70466C173.935 5.50545 174.338 4.54245 175.146 3.81566C175.99 3.05253 177.091 2.67096 178.449 2.67096C179.807 2.67096 180.909 3.05253 181.753 3.81566C182.634 4.54245 183.074 5.50545 183.074 6.70466C183.074 7.90387 182.634 8.88504 181.753 9.64817C180.909 10.375 179.807 10.7384 178.449 10.7384ZM178.504 41.9177C177.367 41.9177 176.486 41.627 175.862 41.0456C175.238 40.4642 174.926 39.6647 174.926 38.6472V17.3885C174.926 16.371 175.238 15.5715 175.862 14.9901C176.486 14.4087 177.367 14.1179 178.504 14.1179C179.606 14.1179 180.486 14.4087 181.147 14.9901C181.808 15.5715 182.138 16.371 182.138 17.3885V38.6472C182.138 39.6647 181.808 40.4642 181.147 41.0456C180.486 41.627 179.606 41.9177 178.504 41.9177Z" fill="url(#paint5_linear_2_172)"/>
<path d="M202.279 41.9177C199.416 41.9177 196.865 41.3726 194.626 40.2825C192.423 39.1559 190.698 37.5388 189.45 35.4311C188.202 33.3234 187.578 30.8523 187.578 28.0178C187.578 25.1834 188.166 22.7304 189.34 20.6591C190.552 18.5514 192.277 16.9343 194.516 15.8077C196.755 14.6812 199.397 14.1179 202.444 14.1179C204.683 14.1179 206.573 14.4813 208.115 15.2081C209.656 15.8986 211.106 16.9524 212.464 18.3697L212.519 3.27056C212.519 2.25306 212.85 1.45359 213.51 0.872152C214.171 0.290717 215.052 0 216.153 0C217.254 0 218.117 0.290717 218.741 0.872152C219.401 1.41725 219.732 2.21672 219.732 3.27056V38.6472C219.732 39.701 219.401 40.5187 218.741 41.1001C218.117 41.6452 217.254 41.9177 216.153 41.9177C215.052 41.9177 214.171 41.627 213.51 41.0456C212.85 40.4642 212.519 39.6647 212.519 38.6472V37.557C210.06 40.4642 206.647 41.9177 202.279 41.9177ZM203.38 36.2488C206.243 36.2488 208.482 35.522 210.097 34.0684C211.712 32.6148 212.519 30.598 212.519 28.0178C212.519 25.4377 211.712 23.4209 210.097 21.9673C208.482 20.5137 206.243 19.7869 203.38 19.7869C200.7 19.7869 198.608 20.5137 197.103 21.9673C195.598 23.4209 194.846 25.4377 194.846 28.0178C194.846 30.598 195.598 32.6148 197.103 34.0684C198.608 35.522 200.7 36.2488 203.38 36.2488Z" fill="url(#paint6_linear_2_172)"/>
<path d="M240.654 55C237.791 55 235.149 54.5821 232.726 53.7463C230.34 52.9105 228.468 51.7658 227.11 50.3122C226.596 49.7671 226.339 49.1493 226.339 48.4589C226.339 47.5504 226.78 46.7327 227.661 46.0059C228.211 45.5699 228.799 45.3518 229.423 45.3518C230.377 45.3518 231.441 45.8788 232.616 46.9326C233.497 47.7321 234.598 48.3499 235.919 48.7859C237.277 49.2583 238.727 49.4945 240.269 49.4945C243.132 49.4945 245.352 48.6406 246.931 46.9326C248.509 45.2246 249.261 42.8626 249.188 39.8464L249.133 37.666C247.885 39.1196 246.417 40.1916 244.728 40.8821C243.077 41.5725 241.04 41.9177 238.617 41.9177C234.102 41.9177 230.579 40.7004 228.046 38.2656C225.514 35.7945 224.247 32.3786 224.247 28.0178C224.247 23.6571 225.532 20.2593 228.101 17.8246C230.707 15.3535 234.323 14.1179 238.947 14.1179C240.856 14.1179 242.691 14.4995 244.453 15.2626C246.215 16.0258 247.793 17.0978 249.188 18.4787V17.3885C249.188 16.371 249.518 15.5715 250.179 14.9901C250.84 14.4087 251.721 14.1179 252.822 14.1179C253.923 14.1179 254.785 14.4087 255.409 14.9901C256.07 15.5352 256.4 16.3347 256.4 17.3885V39.8464C256.4 42.7536 255.758 45.3518 254.473 47.6412C253.226 49.9306 251.409 51.7294 249.023 53.0377C246.674 54.3459 243.884 55 240.654 55ZM240.049 36.2488C242.912 36.2488 245.151 35.522 246.766 34.0684C248.381 32.6148 249.188 30.598 249.188 28.0178C249.188 25.4377 248.381 23.4209 246.766 21.9673C245.151 20.5137 242.912 19.7869 240.049 19.7869C237.369 19.7869 235.277 20.5137 233.772 21.9673C232.267 23.4209 231.515 25.4377 231.515 28.0178C231.515 30.598 232.267 32.6148 233.772 34.0684C235.277 35.522 237.369 36.2488 240.049 36.2488Z" fill="url(#paint7_linear_2_172)"/>
<path d="M276.497 41.9177C273.34 41.9177 270.588 41.3545 268.239 40.2279C265.889 39.1014 264.073 37.5206 262.788 35.4856C261.54 33.4143 260.916 30.9977 260.916 28.2359C260.916 23.7661 262.219 20.2957 264.825 17.8246C267.468 15.3535 271.175 14.1179 275.947 14.1179C278.883 14.1179 281.471 14.5722 283.71 15.4807C285.985 16.3892 287.747 17.6611 288.995 19.2963C290.28 20.8953 290.922 22.7304 290.922 24.8018C290.922 26.5461 290.353 27.8907 289.215 28.8355C288.114 29.7803 286.536 30.2527 284.48 30.2527H267.908C267.908 32.2877 268.624 33.8322 270.055 34.886C271.524 35.9035 273.671 36.4123 276.497 36.4123C279.47 36.4123 282.003 35.7582 284.095 34.45C285.27 33.7232 286.187 33.3598 286.848 33.3598C287.472 33.3598 288.077 33.6505 288.665 34.2319C289.289 34.8497 289.601 35.522 289.601 36.2488C289.601 37.1209 289.234 37.8114 288.5 38.3201C286.958 39.483 285.159 40.3733 283.104 40.9911C281.048 41.6089 278.846 41.9177 276.497 41.9177ZM282.278 25.2379C282.902 25.2379 283.343 25.1288 283.599 24.9108C283.856 24.6564 283.985 24.2567 283.985 23.7116C283.985 22.4397 283.251 21.4404 281.783 20.7136C280.351 19.9868 278.406 19.6234 275.947 19.6234C273.487 19.6234 271.542 20.1321 270.111 21.1497C268.716 22.1672 268.018 23.5299 268.018 25.2379H282.278Z" fill="url(#paint8_linear_2_172)"/>
<path d="M319.539 41.3726C316.749 41.3726 314.584 40.6459 313.042 39.1923C311.5 37.7387 310.73 35.7037 310.73 33.0872V5.94153C310.73 4.92402 311.06 4.12455 311.721 3.54311C312.381 2.96168 313.262 2.67096 314.363 2.67096C315.465 2.67096 316.345 2.97985 317.006 3.59762C317.703 4.17906 318.052 4.96036 318.052 5.94153V33.0872C318.052 33.923 318.254 34.5771 318.658 35.0496C319.098 35.522 319.686 35.7582 320.42 35.7582H338.038C339.139 35.7582 339.983 36.0126 340.57 36.5213C341.158 36.9937 341.451 37.6842 341.451 38.5927C341.451 39.4648 341.139 40.1553 340.515 40.664C339.928 41.1364 339.102 41.3726 338.038 41.3726H319.539Z" fill="#111204"/>
<path d="M353.934 41.9177C351.659 41.9177 349.64 41.5362 347.878 40.773C346.153 40.0099 344.795 38.9561 343.804 37.6115C342.849 36.2306 342.372 34.6498 342.372 32.8692C342.372 30.18 343.492 28.036 345.731 26.4371C348.006 24.8381 351.071 24.0387 354.925 24.0387C358.265 24.0387 360.945 24.7473 362.964 26.1645V24.8563C362.964 23.1483 362.431 21.8401 361.367 20.9316C360.302 20.0231 358.761 19.5689 356.742 19.5689C353.732 19.5689 351.145 20.2048 348.979 21.4767C348.061 21.9855 347.272 22.2398 346.612 22.2398C345.804 22.2398 345.088 21.8764 344.464 21.1497C344.061 20.6409 343.859 20.114 343.859 19.5689C343.859 18.6604 344.336 17.8609 345.29 17.1705C346.612 16.2256 348.282 15.4807 350.3 14.9356C352.319 14.3905 354.448 14.1179 356.687 14.1179C360.945 14.1179 364.285 15.0809 366.707 17.0069C369.167 18.8966 370.396 21.5131 370.396 24.8563V38.8652C370.396 39.81 370.066 40.555 369.405 41.1001C368.781 41.6452 367.919 41.9177 366.818 41.9177C365.68 41.9177 364.799 41.6634 364.175 41.1546C363.551 40.6459 363.239 39.9191 363.239 38.9742V38.3746C361.147 40.7367 358.045 41.9177 353.934 41.9177ZM355.641 36.9029C357.953 36.9029 359.752 36.5576 361.037 35.8672C362.358 35.1404 363.019 34.1411 363.019 32.8692C363.019 31.67 362.358 30.707 361.037 29.9802C359.715 29.2534 357.953 28.89 355.751 28.89C353.769 28.89 352.227 29.2352 351.126 29.9257C350.062 30.6161 349.53 31.5973 349.53 32.8692C349.53 34.1411 350.062 35.1404 351.126 35.8672C352.191 36.5576 353.696 36.9029 355.641 36.9029Z" fill="#111204"/>
<path d="M378.761 41.9177C377.624 41.9177 376.743 41.627 376.119 41.0456C375.495 40.4642 375.183 39.6647 375.183 38.6472V3.27056C375.183 2.25306 375.495 1.45359 376.119 0.872152C376.743 0.290717 377.624 0 378.761 0C379.863 0 380.743 0.290717 381.404 0.872152C382.065 1.45359 382.395 2.25306 382.395 3.27056L382.45 18.3697C383.735 16.9888 385.277 15.9349 387.075 15.2081C388.874 14.4813 390.782 14.1179 392.801 14.1179C397.352 14.1179 400.913 15.3535 403.482 17.8246C406.051 20.2593 407.336 23.6571 407.336 28.0178C407.336 32.3786 406.033 35.7945 403.427 38.2656C400.858 40.7004 397.261 41.9177 392.636 41.9177C390.544 41.9177 388.708 41.5907 387.13 40.9366C385.552 40.2461 383.973 39.1196 382.395 37.557V38.6472C382.395 39.6647 382.065 40.4642 381.404 41.0456C380.743 41.627 379.863 41.9177 378.761 41.9177ZM391.535 36.2488C394.214 36.2488 396.306 35.522 397.811 34.0684C399.316 32.6148 400.068 30.598 400.068 28.0178C400.068 25.4377 399.316 23.4209 397.811 21.9673C396.306 20.5137 394.214 19.7869 391.535 19.7869C388.672 19.7869 386.433 20.5137 384.818 21.9673C383.203 23.4209 382.395 25.4377 382.395 28.0178C382.395 30.598 383.203 32.6148 384.818 34.0684C386.433 35.522 388.672 36.2488 391.535 36.2488Z" fill="#111204"/>
<path d="M423.832 41.9177C417.923 41.9177 413.573 40.2279 410.784 36.8484C410.197 36.0852 409.903 35.3948 409.903 34.777C409.903 33.9049 410.362 33.1417 411.279 32.4876C411.903 32.0879 412.509 31.888 413.096 31.888C413.904 31.888 414.656 32.2332 415.354 32.9237C416.602 34.1592 417.813 35.0496 418.987 35.5946C420.199 36.1034 421.685 36.3578 423.447 36.3578C424.952 36.3578 426.218 36.1579 427.246 35.7582C428.274 35.3584 428.788 34.8679 428.788 34.2864C428.788 33.5596 428.365 32.9419 427.521 32.4331C426.677 31.9243 424.97 31.2702 422.401 30.4708C418.363 29.2352 415.5 27.9452 413.812 26.6006C412.124 25.2197 411.279 23.5117 411.279 21.4767C411.279 19.1873 412.27 17.3885 414.252 16.0803C416.235 14.7721 418.969 14.1179 422.456 14.1179C425.135 14.1179 427.558 14.5177 429.723 15.3171C431.889 16.1166 433.467 17.1886 434.458 18.5332C434.936 19.151 435.174 19.7687 435.174 20.3865C435.174 21.2587 434.734 21.9673 433.853 22.5124C433.229 22.9121 432.586 23.112 431.926 23.112C430.861 23.112 429.889 22.6759 429.008 21.8038C428.274 21.1133 427.319 20.5864 426.145 20.223C425.007 19.8596 423.759 19.6779 422.401 19.6779C419.832 19.6779 418.547 20.2775 418.547 21.4767C418.547 21.9491 418.749 22.367 419.153 22.7304C419.556 23.0938 420.272 23.4754 421.3 23.8751C422.364 24.2749 424.016 24.82 426.255 25.5104C429.852 26.6006 432.366 27.7998 433.798 29.108C435.266 30.4163 436 32.1424 436 34.2864C436 36.5758 434.936 38.4291 432.807 39.8464C430.678 41.2273 427.686 41.9177 423.832 41.9177Z" fill="#111204"/>
<defs>
<linearGradient id="paint0_linear_2_172" x1="0" y1="27.5" x2="436" y2="27.5" gradientUnits="userSpaceOnUse">
<stop stop-color="#6AAF00"/>
<stop offset="1" stop-color="#55FF00"/>
</linearGradient>
<linearGradient id="paint1_linear_2_172" x1="0" y1="27.5" x2="436" y2="27.5" gradientUnits="userSpaceOnUse">
<stop stop-color="#6AAF00"/>
<stop offset="1" stop-color="#55FF00"/>
</linearGradient>
<linearGradient id="paint2_linear_2_172" x1="0" y1="27.5" x2="436" y2="27.5" gradientUnits="userSpaceOnUse">
<stop stop-color="#6AAF00"/>
<stop offset="1" stop-color="#55FF00"/>
</linearGradient>
<linearGradient id="paint3_linear_2_172" x1="0" y1="27.5" x2="436" y2="27.5" gradientUnits="userSpaceOnUse">
<stop stop-color="#6AAF00"/>
<stop offset="1" stop-color="#55FF00"/>
</linearGradient>
<linearGradient id="paint4_linear_2_172" x1="0" y1="27.5" x2="436" y2="27.5" gradientUnits="userSpaceOnUse">
<stop stop-color="#6AAF00"/>
<stop offset="1" stop-color="#55FF00"/>
</linearGradient>
<linearGradient id="paint5_linear_2_172" x1="0" y1="27.5" x2="436" y2="27.5" gradientUnits="userSpaceOnUse">
<stop stop-color="#6AAF00"/>
<stop offset="1" stop-color="#55FF00"/>
</linearGradient>
<linearGradient id="paint6_linear_2_172" x1="0" y1="27.5" x2="436" y2="27.5" gradientUnits="userSpaceOnUse">
<stop stop-color="#6AAF00"/>
<stop offset="1" stop-color="#55FF00"/>
</linearGradient>
<linearGradient id="paint7_linear_2_172" x1="0" y1="27.5" x2="436" y2="27.5" gradientUnits="userSpaceOnUse">
<stop stop-color="#6AAF00"/>
<stop offset="1" stop-color="#55FF00"/>
</linearGradient>
<linearGradient id="paint8_linear_2_172" x1="0" y1="27.5" x2="436" y2="27.5" gradientUnits="userSpaceOnUse">
<stop stop-color="#6AAF00"/>
<stop offset="1" stop-color="#55FF00"/>
</linearGradient>
</defs>
</svg>
