<svg width="24" height="24" viewBox="0 0 24 24" fill="none" xmlns="http://www.w3.org/2000/svg">
<path fill-rule="evenodd" clip-rule="evenodd" d="M16.28 11.47C16.4205 11.6107 16.4994 11.8013 16.4994 12C16.4994 12.1988 16.4205 12.3894 16.28 12.53L8.78003 20.03C8.63785 20.1625 8.44981 20.2346 8.25551 20.2312C8.06121 20.2278 7.87582 20.1491 7.73841 20.0117C7.60099 19.8742 7.52228 19.6889 7.51885 19.4946C7.51543 19.3003 7.58755 19.1122 7.72003 18.97L14.69 12L7.72003 5.03003C7.58755 4.88785 7.51543 4.69981 7.51885 4.50551C7.52228 4.31121 7.60099 4.12582 7.73841 3.98841C7.87582 3.85099 8.06121 3.77228 8.25551 3.76885C8.44981 3.76543 8.63785 3.83755 8.78003 3.97003L16.28 11.47Z" fill="white"/>
</svg>
