<svg width="24" height="24" viewBox="0 0 24 24" fill="none" xmlns="http://www.w3.org/2000/svg">
<path fill-rule="evenodd" clip-rule="evenodd" d="M7.71997 11.47C7.57952 11.6107 7.50063 11.8013 7.50063 12C7.50063 12.1988 7.57952 12.3894 7.71997 12.53L15.22 20.03C15.3621 20.1625 15.5502 20.2346 15.7445 20.2312C15.9388 20.2278 16.1242 20.1491 16.2616 20.0117C16.399 19.8742 16.4777 19.6889 16.4811 19.4946C16.4846 19.3003 16.4125 19.1122 16.28 18.97L9.30997 12L16.28 5.03003C16.4125 4.88785 16.4846 4.69981 16.4811 4.50551C16.4777 4.31121 16.399 4.12582 16.2616 3.98841C16.1242 3.85099 15.9388 3.77228 15.7445 3.76885C15.5502 3.76543 15.3621 3.83755 15.22 3.97003L7.71997 11.47Z" fill="white"/>
</svg>
