<svg width="80" height="88" viewBox="0 0 80 88" fill="none" xmlns="http://www.w3.org/2000/svg">
<g filter="url(#filter0_b_54_335)">
<path d="M0 47.8954C0 25.8618 17.9664 8 40 8C62.0336 8 80 25.8618 80 47.8954C80 69.929 62.0336 87.7908 40 87.7908C17.9664 87.7908 0 69.929 0 47.8954Z" fill="url(#paint0_radial_54_335)"/>
<path d="M0.5 47.8954C0.5 26.1396 18.2408 8.5 40 8.5C61.7592 8.5 79.5 26.1396 79.5 47.8954C79.5 69.6512 61.7592 87.2908 40 87.2908C18.2408 87.2908 0.5 69.6512 0.5 47.8954Z" stroke="url(#paint1_radial_54_335)"/>
<path d="M0.5 47.8954C0.5 26.1396 18.2408 8.5 40 8.5C61.7592 8.5 79.5 26.1396 79.5 47.8954C79.5 69.6512 61.7592 87.2908 40 87.2908C18.2408 87.2908 0.5 69.6512 0.5 47.8954Z" stroke="url(#paint2_radial_54_335)"/>
<path d="M0.5 47.8954C0.5 26.1396 18.2408 8.5 40 8.5C61.7592 8.5 79.5 26.1396 79.5 47.8954C79.5 69.6512 61.7592 87.2908 40 87.2908C18.2408 87.2908 0.5 69.6512 0.5 47.8954Z" stroke="url(#paint3_radial_54_335)"/>
</g>
<g filter="url(#filter1_f_54_335)">
<ellipse cx="39.7435" cy="29.4822" rx="25.3846" ry="16.3673" fill="url(#paint4_radial_54_335)" fill-opacity="0.2"/>
</g>
<path d="M33.6649 39.0617H46.3352C46.3352 39.0617 48.8719 39.0617 48.8719 41.5984V54.2687C48.8719 54.2687 48.8719 56.8055 46.3352 56.8055H33.6649C33.6649 56.8055 31.1282 56.8055 31.1282 54.2687V41.5984C31.1282 41.5984 31.1282 39.0617 33.6649 39.0617Z" stroke="url(#paint5_linear_54_335)" stroke-width="2" stroke-miterlimit="10"/>
<path d="M48.8718 41.5984L53.9453 42.8734V53.007L48.8718 54.282V41.5984Z" stroke="url(#paint6_linear_54_335)" stroke-width="2" stroke-miterlimit="10"/>
<path d="M31.1281 54.282L26.0547 53.007V42.8734L31.1281 41.5984V54.282Z" stroke="url(#paint7_linear_54_335)" stroke-width="2" stroke-miterlimit="10"/>
<path d="M33.6648 47.9469H36.2015L37.4632 46.6719L40 50.4703L42.5367 45.3969L43.7984 47.9469H46.3351" stroke="url(#paint8_linear_54_335)" stroke-width="2" stroke-miterlimit="10"/>
<path d="M37.4634 36.525V39.0617" stroke="url(#paint9_linear_54_335)" stroke-width="2" stroke-miterlimit="10"/>
<path d="M42.5366 36.525V39.0617" stroke="url(#paint10_linear_54_335)" stroke-width="2" stroke-miterlimit="10"/>
<defs>
<filter id="filter0_b_54_335" x="-5" y="3" width="90" height="89.7908" filterUnits="userSpaceOnUse" color-interpolation-filters="sRGB">
<feFlood flood-opacity="0" result="BackgroundImageFix"/>
<feGaussianBlur in="BackgroundImageFix" stdDeviation="2.5"/>
<feComposite in2="SourceAlpha" operator="in" result="effect1_backgroundBlur_54_335"/>
<feBlend mode="normal" in="SourceGraphic" in2="effect1_backgroundBlur_54_335" result="shape"/>
</filter>
<filter id="filter1_f_54_335" x="1.40435" y="0.160334" width="76.6784" height="58.6437" filterUnits="userSpaceOnUse" color-interpolation-filters="sRGB">
<feFlood flood-opacity="0" result="BackgroundImageFix"/>
<feBlend mode="normal" in="SourceGraphic" in2="BackgroundImageFix" result="shape"/>
<feGaussianBlur stdDeviation="6.47727" result="effect1_foregroundBlur_54_335"/>
</filter>
<radialGradient id="paint0_radial_54_335" cx="0" cy="0" r="1" gradientUnits="userSpaceOnUse" gradientTransform="translate(6.69204 8) rotate(47.9449) scale(119.431 86.7751)">
<stop stop-color="white" stop-opacity="0.36"/>
<stop offset="1" stop-color="white" stop-opacity="0"/>
</radialGradient>
<radialGradient id="paint1_radial_54_335" cx="0" cy="0" r="1" gradientUnits="userSpaceOnUse" gradientTransform="translate(-42.5965 16.1628) rotate(35.0407) scale(92.1512 54.3882)">
<stop stop-color="white"/>
<stop offset="1" stop-color="white" stop-opacity="0.06"/>
</radialGradient>
<radialGradient id="paint2_radial_54_335" cx="0" cy="0" r="1" gradientUnits="userSpaceOnUse" gradientTransform="translate(103.421 61.4008) rotate(161.385) scale(66.8428 45.1784)">
<stop stop-color="#6DEC2D"/>
<stop offset="1" stop-color="#84DA00" stop-opacity="0.25"/>
</radialGradient>
<radialGradient id="paint3_radial_54_335" cx="0" cy="0" r="1" gradientUnits="userSpaceOnUse" gradientTransform="translate(40.871 -10.2359) rotate(47.2149) scale(44.643 32.0879)">
<stop stop-color="white"/>
<stop offset="1" stop-color="white" stop-opacity="0"/>
</radialGradient>
<radialGradient id="paint4_radial_54_335" cx="0" cy="0" r="1" gradientUnits="userSpaceOnUse" gradientTransform="translate(39.7435 13.1149) rotate(90) scale(24.2566 37.625)">
<stop stop-color="white"/>
<stop offset="1" stop-color="white" stop-opacity="0"/>
</radialGradient>
<linearGradient id="paint5_linear_54_335" x1="40" y1="39.0617" x2="40" y2="56.8055" gradientUnits="userSpaceOnUse">
<stop stop-color="#6DEC2D"/>
<stop offset="1" stop-color="#3AAF00"/>
</linearGradient>
<linearGradient id="paint6_linear_54_335" x1="51.4085" y1="41.5984" x2="51.4085" y2="54.282" gradientUnits="userSpaceOnUse">
<stop stop-color="#6DEC2D"/>
<stop offset="1" stop-color="#3AAF00"/>
</linearGradient>
<linearGradient id="paint7_linear_54_335" x1="28.5914" y1="41.5984" x2="28.5914" y2="54.282" gradientUnits="userSpaceOnUse">
<stop stop-color="#6DEC2D"/>
<stop offset="1" stop-color="#3AAF00"/>
</linearGradient>
<linearGradient id="paint8_linear_54_335" x1="40" y1="45.3969" x2="40" y2="50.4703" gradientUnits="userSpaceOnUse">
<stop stop-color="#6DEC2D"/>
<stop offset="1" stop-color="#3AAF00"/>
</linearGradient>
<linearGradient id="paint9_linear_54_335" x1="37.9634" y1="36.525" x2="37.9634" y2="39.0617" gradientUnits="userSpaceOnUse">
<stop stop-color="#6DEC2D"/>
<stop offset="1" stop-color="#3AAF00"/>
</linearGradient>
<linearGradient id="paint10_linear_54_335" x1="43.0366" y1="36.525" x2="43.0366" y2="39.0617" gradientUnits="userSpaceOnUse">
<stop stop-color="#6DEC2D"/>
<stop offset="1" stop-color="#3AAF00"/>
</linearGradient>
</defs>
</svg>
